<svg width="21" height="21" viewBox="0 0 21 21" fill="none" xmlns="http://www.w3.org/2000/svg">
<path fill-rule="evenodd" clip-rule="evenodd" d="M2.96777 0.587891C1.86328 0.587891 0.967773 1.4834 0.967773 2.58789V18.5879C0.967773 19.6924 1.86328 20.5879 2.96777 20.5879H18.9678C20.0723 20.5879 20.9678 19.6924 20.9678 18.5879V2.58789C20.9678 1.4834 20.0723 0.587891 18.9678 0.587891H2.96777ZM16.5916 7.88916V16.9209H18.9812V7.88916H16.5916ZM15.2659 16.9224H12.5276L11.439 14.0903H6.45532L5.42627 16.9224H2.75586L7.61182 4.45459H10.2739L15.2659 16.9224ZM10.6311 11.9897L8.91309 7.36328L7.22925 11.9897H10.6311ZM17.7871 7.03906C18.5562 7.03906 19.1797 6.41553 19.1797 5.64648C19.1797 4.87744 18.5562 4.25391 17.7871 4.25391C17.0181 4.25391 16.3945 4.87744 16.3945 5.64648C16.3945 6.41553 17.0181 7.03906 17.7871 7.03906Z" fill="white"/>
</svg>
